<?xml version="1.0" standalone="no"?>
<!DOCTYPE svg PUBLIC "-//W3C//DTD SVG 1.1//EN"
        "http://www.w3.org/Graphics/SVG/1.1/DTD/svg11.dtd">
<svg xmlns:xlink="http://www.w3.org/1999/xlink" t="1755251069164" class="icon" viewBox="0 0 1024 1024"
     version="1.1" xmlns="http://www.w3.org/2000/svg" p-id="7947"
     width="128" height="128">

    <!-- 上面的箭头，白色，透明度0.8 -->
    <path d="M485.717333 78.336L50.773333 418.816a21.162667 21.162667 0 0 0-8.106666 16.810667v102.997333
           c0 8.96 10.24 13.909333 17.237333 8.448L512 193.194667l452.096 353.877333a10.666667 10.666667 0 0 0 17.237333-8.362667
           V435.541333a21.589333 21.589333 0 0 0-8.106666-16.810666L538.368 78.336a42.666667 42.666667 0 0 0-52.650667 0z"
          fill="#FFFFFF" opacity="0.8" p-id="7948-1"></path>

    <!-- 下面的箭头，原色，透明度0.8 -->
    <path d="M485.717333 483.754667L50.773333 824.149333a21.162667 21.162667 0 0 0-8.106666 16.810667v103.082667
           c0 8.874667 10.24 13.824 17.237333 8.362666L512 598.528l452.096 353.877333a10.666667 10.666667 0 0 0 17.237333-8.362666
           V840.96a21.589333 21.589333 0 0 0-8.106666-16.810667l-434.858667-340.48a42.666667 42.666667 0 0 0-52.650667 0z"
          fill="#BAB3AF" opacity="0.8" p-id="7948-2"></path>

</svg>
