<?xml version="1.0" standalone="no"?><!DOCTYPE svg PUBLIC "-//W3C//DTD SVG 1.1//EN" "http://www.w3.org/Graphics/SVG/1.1/DTD/svg11.dtd"><svg t="1730252694830" class="icon" viewBox="0 0 1024 1024" version="1.1" xmlns="http://www.w3.org/2000/svg" p-id="44024" xmlns:xlink="http://www.w3.org/1999/xlink" width="64" height="64"><path d="M485.6 375.6v329.9c0 14.5 11.8 26.3 26.3 26.3h9.2c14.5 0 26.2-11.7 26.2-26.2v-330c0-3.6 4.3-5.4 6.9-2.9l138.4 134.9c10.6 10.4 27.6 10.2 38.1-0.2 9.9-9.9 9.8-26.1-0.3-35.8L531.1 279.5c-7.1-6.8-18.2-6.9-25.4-0.2L304.5 466.4c-11.1 10.3-11.4 27.8-0.7 38.5 9.6 9.6 25.3 9.7 35 0.2l137-133.6c3.6-3.6 9.8-1 9.8 4.1z" fill="#3ab0ed" p-id="44025"></path><path d="M521.1 741.9h-9.2c-20 0-36.3-16.3-36.3-36.3v-320L345.8 512.2c-13.6 13.3-35.6 13.1-49.1-0.3-7.1-7.1-10.9-16.6-10.7-26.6 0.2-10.1 4.3-19.4 11.7-26.2L498.8 272c11.1-10.3 28.3-10.1 39.2 0.4l199.2 192.1c6.8 6.6 10.6 15.5 10.7 24.9 0.1 9.5-3.6 18.4-10.3 25.1-14.3 14.3-37.7 14.4-52.1 0.3l-128.3-125v315.9c0 19.9-16.2 36.2-36.1 36.2z m-41.3-382.1c2.1 0 4.1 0.4 6.1 1.2 5.9 2.5 9.6 8.2 9.6 14.5v329.9c0 9 7.3 16.3 16.3 16.3h9.2c8.9 0 16.2-7.3 16.2-16.2V375.6c0-5.7 3.4-10.7 8.6-12.9 5.2-2.2 11.2-1.1 15.3 2.9l138.4 134.9c6.7 6.5 17.4 6.4 24-0.2 2.9-2.9 4.5-6.7 4.4-10.8 0-4.1-1.7-7.9-4.6-10.7L524.1 286.7c-3.2-3.1-8.4-3.2-11.7-0.1L311.3 473.7c-3.4 3.1-5.2 7.4-5.3 11.9-0.1 4.6 1.7 8.9 4.9 12.1 5.7 5.7 15.2 5.8 21 0.1l137-133.6c2.9-2.8 6.9-4.4 10.9-4.4z" fill="#3ab0ed" p-id="44026"></path><path d="M513 1010.4c-67.1 0-132.3-13.2-193.6-39.1-59.2-25.1-112.4-60.9-158.1-106.6-45.6-45.7-81.5-98.9-106.6-158.1C28.8 645.3 15.6 580.1 15.6 513s13.2-132.3 39.1-193.6c25.1-59.2 60.9-112.4 106.6-158.1s98.9-81.5 158.1-106.6C380.8 28.8 445.9 15.6 513 15.6s132.3 13.2 193.6 39.1c59.2 25.1 112.4 60.9 158.1 106.6 45.7 45.7 81.5 98.9 106.6 158.1 25.9 61.3 39.1 126.5 39.1 193.6s-13.2 132.3-39.1 193.6c-25.1 59.2-60.9 112.4-106.6 158.1-45.7 45.7-98.9 81.5-158.1 106.6-61.3 25.9-126.4 39.1-193.6 39.1z m0-912.8C284 97.6 97.6 283.9 97.6 513S284 928.4 513 928.4 928.4 742 928.4 513 742.1 97.6 513 97.6z" fill="#3ab0ed" p-id="44027"></path></svg>