<?xml version="1.0" standalone="no"?><!DOCTYPE svg PUBLIC "-//W3C//DTD SVG 1.1//EN" "http://www.w3.org/Graphics/SVG/1.1/DTD/svg11.dtd"><svg t="1742053649389" class="icon" viewBox="0 0 1024 1024" version="1.1" xmlns="http://www.w3.org/2000/svg" p-id="9057" xmlns:xlink="http://www.w3.org/1999/xlink" width="32" height="32"><path d="M454.656 512L245.76 303.104c-16.384-16.384-16.384-40.96 0-57.344 16.384-16.384 40.96-16.384 57.344 0L512 454.656 765.952 200.704c16.384-16.384 40.96-16.384 57.344 0s16.384 40.96 0 57.344L569.344 512l253.952 253.952c16.384 16.384 16.384 40.96 0 57.344-16.384 16.384-40.96 16.384-57.344 0L512 569.344 303.104 778.24c-16.384 16.384-40.96 16.384-57.344 0-16.384-16.384-16.384-40.96 0-57.344L454.656 512z" opacity=".3" p-id="9058" fill="#1296db"></path><path d="M266.24 757.76h122.88c26.624 4.096 40.96 18.432 40.96 40.96s-14.336 36.864-40.96 40.96H184.32V634.88c0-26.624 14.336-40.96 40.96-40.96s40.96 14.336 40.96 40.96v122.88z m491.52 0v-122.88c4.096-26.624 18.432-40.96 40.96-40.96s36.864 14.336 40.96 40.96v204.8H634.88c-26.624 0-40.96-14.336-40.96-40.96s14.336-40.96 40.96-40.96h122.88z m0-491.52h-122.88c-26.624-4.096-40.96-18.432-40.96-40.96s14.336-36.864 40.96-40.96h204.8v204.8c0 26.624-14.336 40.96-40.96 40.96s-40.96-14.336-40.96-40.96v-122.88z m-491.52 0v122.88c-4.096 26.624-18.432 40.96-40.96 40.96s-36.864-14.336-40.96-40.96V184.32h204.8c26.624 0 40.96 14.336 40.96 40.96s-14.336 40.96-40.96 40.96h-122.88z" p-id="9059" fill="#1296db"></path></svg>