<?xml version="1.0" standalone="no"?><!DOCTYPE svg PUBLIC "-//W3C//DTD SVG 1.1//EN" "http://www.w3.org/Graphics/SVG/1.1/DTD/svg11.dtd"><svg t="1730264606557" class="icon" viewBox="0 0 1103 1024" version="1.1" xmlns="http://www.w3.org/2000/svg" p-id="51329" xmlns:xlink="http://www.w3.org/1999/xlink" width="68.9375" height="64"><path d="M262.564103 498.871795l472.615385 0c14.519795 0 26.25641-11.736615 26.25641-26.25641s-11.736615-26.25641-26.25641-26.25641L262.564103 446.358974c-14.519795 0-26.25641 11.736615-26.25641 26.25641S248.044308 498.871795 262.564103 498.871795z" p-id="51330" fill="#515151"></path><path d="M840.205128 603.897436 262.564103 603.897436c-14.519795 0-26.25641 11.736615-26.25641 26.25641s11.736615 26.25641 26.25641 26.25641l577.641026 0c14.519795 0 26.25641-11.736615 26.25641-26.25641S854.724923 603.897436 840.205128 603.897436z" p-id="51331" fill="#515151"></path><path d="M840.205128 761.435897 262.564103 761.435897c-14.519795 0-26.25641 11.736615-26.25641 26.25641s11.736615 26.25641 26.25641 26.25641l577.641026 0c14.519795 0 26.25641-11.736615 26.25641-26.25641S854.724923 761.435897 840.205128 761.435897z" p-id="51332" fill="#515151"></path><path d="M997.74359 346.059487c-14.519795 0-26.25641 11.762872-26.25641 26.25641L971.487179 840.205128c0 72.362667-58.893128 131.282051-131.282051 131.282051L262.564103 971.487179c-72.388923 0-131.282051-58.919385-131.282051-131.282051L131.282051 293.546667c0-72.388923 58.893128-131.282051 131.282051-131.282051l315.076923 0c14.519795 0 26.25641-11.762872 26.25641-26.25641s-11.736615-26.25641-26.25641-26.25641L262.564103 109.751795c-101.323487 0-183.794872 82.445128-183.794872 183.794872L78.769231 840.205128c0 101.323487 82.471385 183.794872 183.794872 183.794872l577.641026 0c101.323487 0 183.794872-82.471385 183.794872-183.794872L1024 372.315897C1024 357.822359 1012.263385 346.059487 997.74359 346.059487z" p-id="51333" fill="#515151"></path><path d="M723.180308 174.73641c14.414769-1.732923 24.654769-14.808615 22.921846-29.223385-4.516103-37.100308 21.398974-74.909538 47.576615-83.915487 42.771692-14.782359 81.657436-11.526564 118.784 9.87241 17.985641 10.371282 29.617231 28.960821 31.980308 50.989949 2.468103 22.974359-5.697641 45.397333-21.687795 59.943385-2.888205 2.441846-15.044923 9.846154-24.838564 15.780103-10.765128 6.537846-23.079385 14.020923-34.789744 21.714051-37.888 24.864821-50.070974 38.281846-50.070974 55.190974l0.026256 0c-0.183795 4.962462-0.420103 14.729846-0.551385 24.786051-0.131282 7.850667 0 3.387077 0.052513 1.076513-1.155282 13.285744 7.378051 25.547487 20.768821 28.01559 1.627897 0.288821 3.203282 0.446359 4.804923 0.446359 12.419282 0 24.576-8.84841 26.886564-21.477744 0.551385-3.098256 0.551385-3.098256 0-7.246769 0.105026-6.642872 0.183795-13.128205 0.262564-17.434256 3.518359-3.177026 11.106462-9.242256 26.676513-19.456 11.185231-7.351795 22.948103-14.493538 33.240615-20.742564 17.670564-10.712615 27.122872-16.541538 32.768-21.687795 28.514462-25.862564 42.981744-64.932103 38.754462-104.500513-4.174769-38.912-25.311179-72.04759-57.974154-90.899692-50.359795-29.013333-104.894359-33.765744-162.15959-14.020923-52.696615 18.143179-89.74441 80.896-82.602667 139.867897C695.689846 166.229333 708.660513 176.548103 723.180308 174.73641z" p-id="51334" fill="#515151"></path><path d="M837.737026 377.120821c-20.269949 0.393846-35.682462 16.909128-35.026051 37.494154 0.630154 19.298462 16.699077 34.15959 36.522667 33.792 19.954872-0.341333 34.868513-15.465026 34.921026-35.288615C874.180923 394.213744 859.477333 376.726974 837.737026 377.120821z" p-id="51335" fill="#515151"></path></svg>