<?xml version="1.0" standalone="no"?><!DOCTYPE svg PUBLIC "-//W3C//DTD SVG 1.1//EN" "http://www.w3.org/Graphics/SVG/1.1/DTD/svg11.dtd"><svg t="1730251402427" class="icon" viewBox="0 0 1024 1024" version="1.1" xmlns="http://www.w3.org/2000/svg" p-id="38558" xmlns:xlink="http://www.w3.org/1999/xlink" width="64" height="64"><path d="M310.4256 147.2A163.2256 163.2256 0 0 1 473.6 310.4256V473.6H310.3744a163.2256 163.2256 0 0 1 0-326.4zM396.8 396.8V310.3744A86.3744 86.3744 0 1 0 310.3744 396.8H396.8z m-86.4256 153.6H473.6v163.2256a163.2256 163.2256 0 1 1-163.2256-163.2256z m0 76.8a86.4256 86.4256 0 1 0 86.4256 86.4256V627.2H310.3744z m403.2-480a163.2256 163.2256 0 0 1 0 326.4H550.4V310.3744a163.2256 163.2256 0 0 1 163.2256-163.1744z m0 249.6a86.4256 86.4256 0 1 0-86.3744-86.4256V396.8h86.4256z m-163.1744 153.6h163.2256a163.2256 163.2256 0 1 1-163.2256 163.2256V550.4z m76.8 76.8v86.4256a86.4256 86.4256 0 1 0 86.4256-86.4256H627.2z" fill="#2c2c2c" fill-opacity=".648" p-id="38559"></path></svg>