<?xml version="1.0" standalone="no"?><!DOCTYPE svg PUBLIC "-//W3C//DTD SVG 1.1//EN" "http://www.w3.org/Graphics/SVG/1.1/DTD/svg11.dtd"><svg t="1730252641040" class="icon" viewBox="0 0 1024 1024" version="1.1" xmlns="http://www.w3.org/2000/svg" p-id="42861" xmlns:xlink="http://www.w3.org/1999/xlink" width="64" height="64"><path d="M103.904 925.088c-30.72-30.72-47.712-61.472-47.584-104.864V203.84c-0.096-43.488 16.864-74.144 47.584-104.96 30.72-30.72 61.376-47.712 104.864-47.712H561.92c24.128 0 43.68 19.584 43.712 43.712 0 24.128-19.584 28.352-43.712 28.352H200.288c-20.128 0-35.456 23.136-49.728 37.408s-22.08 22.976-22.08 43.104v616.384c0 20.128 23.168 44.16 37.44 58.464 14.272 14.176 22.976 22.08 43.104 22.08h616.608c19.808 0 44.288-18.24 58.24-32.32 14.272-14.176 16.96-27.968 16.96-48.224l-1.408-353.024c0.224-23.904 9.568-43.488 33.472-43.488s38.368 19.456 38.688 43.264l1.312 353.152c0 43.584-11.744 74.24-42.592 105.056-30.72 30.72-61.376 47.712-104.864 47.712H208.832c-43.488 0-74.112-16.992-104.832-47.712zM563.392 271.808l-0.224 137.056L886.496 87.392c10.08-10.176 28.672-31.072 43.008-31.072s22.656 0.512 32.768 10.592c20.832 20.8-4.768 49.6-25.6 70.496l-321.664 318.048h138.496c14.336 0 53.632-1.504 53.856 33.888 0.192 29.472-24.8 37.92-54.336 37.92h-211.328c-42.624 0-50.304-4.864-50.304-51.584V264.224c0-14.304-0.032-51.776 35.456-52.576 29.504-0.672 36.544 30.688 36.544 60.16z" p-id="42862" fill="#515151"></path></svg>