<?xml version="1.0" standalone="no"?><!DOCTYPE svg PUBLIC "-//W3C//DTD SVG 1.1//EN" "http://www.w3.org/Graphics/SVG/1.1/DTD/svg11.dtd"><svg t="1730264750931" class="icon" viewBox="0 0 1024 1024" version="1.1" xmlns="http://www.w3.org/2000/svg" p-id="55636" xmlns:xlink="http://www.w3.org/1999/xlink" width="64" height="64"><path d="M307.2 194.56c61.44 0 119.467 37.547 143.36 92.16 23.893 58.027 13.653 122.88-30.72 170.667-44.373 44.373-109.227 58.026-167.253 34.133-58.027-23.893-95.574-78.507-95.574-143.36-3.413-81.92 64.854-150.187 150.187-153.6zM3.413 884.053c0-167.253 133.12-307.2 303.787-314.026 167.253 3.413 303.787 143.36 300.373 314.026H3.413zM962.56 788.48H815.787c-27.307 0-51.2-23.893-51.2-51.2s23.893-51.2 51.2-51.2h150.186c27.307 0 51.2 20.48 54.614 47.787 0 27.306-20.48 51.2-47.787 54.613h-10.24z m0-204.8H716.8c-27.307 0-51.2-20.48-54.613-47.787 0-27.306 20.48-51.2 47.786-54.613H962.56c13.653 0 27.307 3.413 37.547 13.653 10.24 10.24 17.066 23.894 17.066 37.547 0 27.307-23.893 51.2-51.2 51.2h-3.413z m0-204.8H638.293c-27.306 0-51.2-20.48-54.613-47.787 0-27.306 20.48-51.2 47.787-54.613h327.68c27.306 0 51.2 23.893 51.2 51.2 0 13.653-3.414 27.307-13.654 37.547-6.826 10.24-20.48 13.653-34.133 13.653z" fill="#515151" p-id="55637"></path></svg>