<?xml version="1.0" standalone="no"?><!DOCTYPE svg PUBLIC "-//W3C//DTD SVG 1.1//EN" "http://www.w3.org/Graphics/SVG/1.1/DTD/svg11.dtd"><svg t="1730264806626" class="icon" viewBox="0 0 1024 1024" version="1.1" xmlns="http://www.w3.org/2000/svg" p-id="56762" xmlns:xlink="http://www.w3.org/1999/xlink" width="64" height="64"><path d="M276.297143 350.537143c7.314286 101.851429 45.897143 317.257143 235.52 415.268571C701.622857 665.6 740.205714 451.657143 747.52 350.537143L512 257.462857l-235.702857 93.074286z m398.262857 66.194286c7.131429 7.131429 7.131429 18.651429 0 25.782857l-164.571429 164.571428c-3.657143 3.657143-8.228571 5.302857-12.982857 5.302857-4.571429 0-9.142857-1.645714-12.617143-5.12l-89.234285-85.76a18.212571 18.212571 0 1 1 25.234285-26.331428l76.251429 73.325714 151.954286-151.954286c7.314286-6.948571 18.834286-6.948571 25.965714 0.182858z" fill="#3ab0ed" p-id="56763"></path><path d="M512 9.142857C234.24 9.142857 9.142857 234.24 9.142857 512S234.24 1014.857143 512 1014.857143 1014.857143 789.76 1014.857143 512 789.76 9.142857 512 9.142857z m8.228571 793.417143c-2.56 1.28-5.485714 2.011429-8.228571 2.011429-2.742857 0-5.485714-0.548571-8.045714-1.828572-222.72-108.8-259.474286-360.228571-264.96-463.36a18.285714 18.285714 0 0 1 11.52-17.92l254.72-100.754286c4.388571-1.645714 9.142857-1.645714 13.531428 0l254.72 100.754286a18.285714 18.285714 0 0 1 11.52 17.92c-5.485714 102.217143-42.057143 351.817143-264.777143 463.177143z" fill="#3ab0ed" p-id="56764"></path></svg>