<?xml version="1.0" standalone="no"?><!DOCTYPE svg PUBLIC "-//W3C//DTD SVG 1.1//EN" "http://www.w3.org/Graphics/SVG/1.1/DTD/svg11.dtd"><svg t="1730251041001" class="icon" viewBox="0 0 1024 1024" version="1.1" xmlns="http://www.w3.org/2000/svg" p-id="34226" xmlns:xlink="http://www.w3.org/1999/xlink" width="64" height="64"><path d="M821.333333 0h-426.666666A202.88 202.88 0 0 0 192 202.666667v21.333333a10.666667 10.666667 0 0 1-10.666667 10.666667h-85.333333a96 96 0 0 0 0 192h853.333333a74.666667 74.666667 0 0 0 74.666667-74.666667v-149.333333A202.88 202.88 0 0 0 821.333333 0zM960 352a10.666667 10.666667 0 0 1-10.666667 10.666667h-853.333333a32 32 0 0 1 0-64h85.333333a74.666667 74.666667 0 0 0 74.666667-74.666667v-21.333333A138.88 138.88 0 0 1 394.666667 64h426.666666A138.88 138.88 0 0 1 960 202.666667zM992 469.333333a32 32 0 0 0-32 32v106.666667a352 352 0 0 1-704 0v-106.666667a32 32 0 0 0-64 0v106.666667a416 416 0 0 0 832 0v-106.666667a32 32 0 0 0-32-32z" fill="#515151" p-id="34227"></path><path d="M864 234.666667h-277.333333a32 32 0 0 0 0 64h277.333333a32 32 0 0 0 0-64zM473.813333 640a30.506667 30.506667 0 0 0 6.186667 0 32 32 0 0 0 6.186667-64l-106.666667-21.333333a32 32 0 1 0-12.373333 64zM736 640a30.506667 30.506667 0 0 0 6.186667 0l106.666666-21.333333a32 32 0 0 0-12.373333-64l-106.666667 21.333333a32 32 0 0 0 6.186667 64z" fill="#515151" p-id="34228"></path></svg>