<?xml version="1.0" standalone="no"?><!DOCTYPE svg PUBLIC "-//W3C//DTD SVG 1.1//EN" "http://www.w3.org/Graphics/SVG/1.1/DTD/svg11.dtd"><svg t="1730264698485" class="icon" viewBox="0 0 1025 1024" version="1.1" xmlns="http://www.w3.org/2000/svg" p-id="54556" xmlns:xlink="http://www.w3.org/1999/xlink" width="64.0625" height="64"><path d="M699.384064 79.36c51.2 0 97.28 23.04 128 61.44 7.68 10.24 30.72 40.96 74.24 40.96 7.68 0 15.36 0 23.04-2.56 0 0 0 0 0 0-51.2 51.2-56.32 122.88-58.88 163.84-2.56 20.48-2.56 43.52-2.56 64-2.56 61.44-5.12 117.76-17.92 174.08-38.4 171.52-168.96 307.2-330.24 348.16-35.84 10.24-74.24 12.8-112.64 12.8-40.96 0-79.36-5.12-117.76-15.36-20.48-5.12-40.96-12.8-61.44-20.48 53.76-15.36 102.4-43.52 148.48-87.04 12.8-12.8 17.92-28.16 15.36-46.08-2.56-17.92-15.36-30.72-30.72-38.4-2.56 0-5.12-2.56-7.68-2.56-7.68-2.56-17.92-7.68-30.72-10.24-40.96-5.12-66.56-23.04-61.44-89.6 2.56-35.84-2.56-81.92-64-104.96-20.48-7.68-43.52-23.04-38.4-92.16C154.104064 394.24 138.744064 363.52 102.904064 340.48c-25.6-15.36-40.96-43.52-48.64-97.28C51.704064 230.4 51.704064 217.6 51.704064 202.24c107.52 84.48 235.52 145.92 396.8 192 5.12 2.56 10.24 2.56 15.36 2.56 10.24 0 20.48-2.56 30.72-10.24 12.8-10.24 20.48-23.04 20.48-38.4 0-12.8 2.56-25.6 2.56-38.4 2.56-25.6 2.56-46.08 5.12-69.12 5.12-66.56 58.88-130.56 122.88-151.04C660.984064 81.92 678.904064 79.36 699.384064 79.36 699.384064 79.36 699.384064 79.36 699.384064 79.36M699.384064 28.16c-23.04 0-46.08 2.56-71.68 10.24-84.48 25.6-151.04 110.08-158.72 197.12-2.56 33.28-5.12 66.56-7.68 110.08C292.344064 294.4 141.304064 225.28 15.864064 104.96 3.064064 148.48-4.615936 199.68 3.064064 250.88c7.68 53.76 23.04 102.4 71.68 133.12 23.04 15.36 28.16 28.16 25.6 51.2-2.56 61.44 7.68 117.76 71.68 140.8 28.16 12.8 33.28 25.6 30.72 53.76-5.12 79.36 25.6 133.12 104.96 143.36 7.68 0 15.36 5.12 25.6 10.24C274.424064 844.8 210.424064 870.4 141.304064 870.4c-40.96 0-81.92-7.68-122.88-23.04 20.48 7.68 40.96 33.28 58.88 46.08 20.48 12.8 40.96 25.6 64 38.4 40.96 20.48 84.48 38.4 130.56 48.64 43.52 10.24 87.04 15.36 130.56 15.36 40.96 0 84.48-5.12 125.44-15.36 184.32-46.08 325.12-202.24 366.08-386.56 17.92-79.36 17.92-163.84 23.04-245.76 5.12-61.44 15.36-120.32 74.24-153.6 7.68-5.12 12.8-12.8 17.92-17.92-10.24-2.56-20.48-5.12-33.28-7.68 15.36-23.04 30.72-43.52 48.64-69.12-38.4 10.24-69.12 17.92-99.84 28.16-7.68 2.56-15.36 5.12-20.48 5.12-12.8 0-23.04-5.12-33.28-20.48C824.824064 56.32 763.384064 28.16 699.384064 28.16L699.384064 28.16zM1024.504064 97.28 1024.504064 97.28 1024.504064 97.28z" p-id="54557" fill="#515151"></path></svg>