<?xml version="1.0" standalone="no"?><!DOCTYPE svg PUBLIC "-//W3C//DTD SVG 1.1//EN" "http://www.w3.org/Graphics/SVG/1.1/DTD/svg11.dtd"><svg t="1730250504664" class="icon" viewBox="0 0 1024 1024" version="1.1" xmlns="http://www.w3.org/2000/svg" p-id="24513" xmlns:xlink="http://www.w3.org/1999/xlink" width="64" height="64"><path d="M512 256c-82.133333 0-149.333333 67.2-149.333333 149.333333s67.2 149.333333 149.333333 149.333334 149.333333-67.2 149.333333-149.333334-67.2-149.333333-149.333333-149.333333z m0 246.4C458.666667 502.4 414.933333 458.666667 414.933333 405.333333S458.666667 308.266667 512 308.266667 609.066667 352 609.066667 405.333333 565.333333 502.4 512 502.4z" p-id="24514" fill="#515151"></path><path d="M682.666667 42.666667H341.333333c-58.666667 0-106.666667 48-106.666666 106.666666v725.333334c0 58.666667 48 106.666667 106.666666 106.666666h341.333334c58.666667 0 106.666667-48 106.666666-106.666666V149.333333c0-58.666667-48-106.666667-106.666666-106.666666z m42.666666 832c0 22.933333-19.733333 42.666667-42.666666 42.666666H341.333333c-22.933333 0-42.666667-19.733333-42.666666-42.666666V149.333333c0-22.933333 19.733333-42.666667 42.666666-42.666666h341.333334c22.933333 0 42.666667 19.733333 42.666666 42.666666v725.333334z" p-id="24515" fill="#515151"></path><path d="M565.333333 746.666667H458.666667c-17.6 0-32 14.4-32 32s14.4 32 32 32h106.666666c17.6 0 32-14.4 32-32s-14.4-32-32-32z" p-id="24516" fill="#515151"></path></svg>