<svg width="17" height="17" viewBox="0 0 17 17" shape-rendering="geometricPrecision" xmlns="http://www.w3.org/2000/svg">
  <path d="M14.3639 0L16.4706 0L16.4706 16.9867L14.3639 16.9867L14.3639 0Z" fill="#B2B2B2" transform="matrix(1 0 0 1 0.000019 0.000008)"/>
  <path d="M11.3459 3.18325L13.4367 3.18325L13.4367 17L11.3459 17L11.3459 3.18325Z" fill="#B2B2B2" transform="matrix(1 0 0 1 0.000019 0.000008)"/>
  <path d="M8.34115 5.37899L10.4492 5.37899L10.4492 16.9934L8.34115 16.9934L8.34115 5.37899Z" fill="#FF7B00" transform="matrix(1 0 0 1 0.000019 0.000008)"/>
  <path d="M5.47061 8.02285L7.52422 8.02285L7.52422 16.9801L5.47061 16.9801L5.47061 8.02285Z" fill="#FF7B00" transform="matrix(1 0 0 1 0.000019 0.000008)"/>
  <path d="M2.4061 11.3333L4.4061 11.3333L4.4061 17L2.4061 17L2.4061 11.3333Z" fill="#FF7B00" transform="matrix(1 0 0 1 0.000019 0.000008)"/>
  <path d="M1.56 14.1L0 14.1L0 16.9333L1.56 16.9333L1.56 14.1Z" fill="#FF7B00" transform="matrix(1 0 0 1 0.000019 0.000008)"/>
</svg>