<?xml version="1.0" standalone="no"?><!DOCTYPE svg PUBLIC "-//W3C//DTD SVG 1.1//EN" "http://www.w3.org/Graphics/SVG/1.1/DTD/svg11.dtd"><svg t="1751018321035" class="icon" viewBox="0 0 1024 1024" version="1.1" xmlns="http://www.w3.org/2000/svg" p-id="5537" data-spm-anchor-id="a313x.search_index.0.i11.6c573a81wKAg47" xmlns:xlink="http://www.w3.org/1999/xlink" width="32" height="32"><path d="M424.96 450.56c-10.24 8.533-15.36 22.187-15.36 35.84s5.12 27.307 15.36 37.547c10.24 8.533 22.187 13.653 37.547 13.653 13.653 0 25.6-5.12 35.84-13.653 10.24-10.257 15.343-23.894 15.343-37.547s-5.12-27.307-15.343-35.84c-10.24-10.24-22.187-15.36-35.84-15.36-15.36 0-27.307 5.12-37.547 15.36zM646.827 873.813h-25.6a17.067 17.067 0 0 1-1.878-0.102c-32.887-3.67-60.86-12.834-85.589-28.04-35.601-25.089-52.48-51.969-52.48-82.791 0-32.41 17.545-60.211 52.173-82.603 30.071-20.684 69.393-31.744 113.374-31.744 43.81 0 82.551 10.684 115.08 31.761 14.575 9.08 26.966 20.856 35.652 33.86 4.13 6.213 3.67 14.149-0.597 19.78 8.653 0.854 15.411 8.125 15.411 17v11.946c0 31.625-16.315 58.522-49.886 82.21-32.716 19.32-71.236 28.723-115.66 28.723z m-24.628-34.133h24.628c38.246 0 70.929-7.817 97.143-23.245 30.584-21.657 34.253-40.96 34.253-53.555v-11.947c0-3.89 1.28-7.458 3.464-10.308a16.981 16.981 0 0 1-12.526-7.51c-6.008-9.01-14.848-17.322-25.566-23.995-27.153-17.613-59.631-26.453-96.768-26.453-37.035 0-69.7 8.994-94.447 26.01-33.178 21.47-36.967 41.198-36.967 54.203 0 18.91 12.152 36.676 37.154 54.323 19.2 11.776 42.275 19.337 69.632 22.477z" p-id="5538" data-spm-anchor-id="a313x.search_index.0.i7.6c573a81wKAg47" class="selected" fill="#ffffff"></path><path d="M795.307 768c-7.151 0-13.824-4.54-16.197-11.69l-1.843-5.82c-2.201-7.083-3.67-11.76-7.219-16.214a17.067 17.067 0 1 1 26.658-21.299c7.56 9.472 10.394 18.569 13.159 27.375l1.655 5.205A17.067 17.067 0 0 1 795.307 768z" p-id="5539"></path><path d="M783.36 740.693a17.05 17.05 0 0 1-12.1-29.098c2.201-2.219 6.622-7.953 9.813-12.783a17.067 17.067 0 1 1 28.433 18.91c-3.84 5.751-9.643 13.533-14.046 17.954a17.015 17.015 0 0 1-12.1 5.017z" p-id="5540" data-spm-anchor-id="a313x.search_index.0.i13.6c573a81wKAg47" class="selected" fill="#ffffff"></path><path d="M795.307 768a17.067 17.067 0 0 1-17.067-17.067v-42.666a17.067 17.067 0 1 1 34.133 0v42.666A17.067 17.067 0 0 1 795.307 768zM448.87 904.533l-0.819-0.017c-40.106-1.894-75.196-9.967-104.226-17.613-63.812-21.213-118.391-55.415-163.243-101.939C101.65 707.823 61.44 611.26 61.44 498.347c0-111.77 40.192-207.753 119.467-285.27 77.26-79.018 173.824-119.21 286.72-119.21 88.661 0 167.85 25.241 235.383 75.008a17.067 17.067 0 1 1-20.224 27.477C621.226 151.006 548.83 128 467.626 128c-103.372 0-191.71 36.745-262.57 109.21C132.318 308.343 95.573 396.1 95.573 498.347c0 103.39 36.745 191.71 109.21 262.57 41.352 42.872 91.29 74.138 148.77 93.304 26.266 6.86 59.153 14.455 96.102 16.196a17.067 17.067 0 0 1-0.785 34.116z" p-id="5541" data-spm-anchor-id="a313x.search_index.0.i14.6c573a81wKAg47" class="selected" fill="#ffffff"></path><path d="M462.507 633.173c-39.22 0-72.192-13.909-100.813-42.53-27.34-25.532-40.84-58.624-40.84-100.83 0-39.748 12.97-71.253 40.84-99.106 30.379-28.382 64.153-42.547 100.813-42.547 38.127 0 72.994 14.711 100.812 42.547 28.007 29.97 40.858 61.338 40.858 99.106 0 40.346-13.363 73.336-40.858 100.813-25.804 27.682-60.808 42.547-100.812 42.547z m0-250.88c-28.11 0-53.334 10.786-77.108 32.956-21.196 21.214-30.412 43.64-30.412 74.564 0 33.11 9.386 56.628 30.43 76.271 22.613 22.614 46.984 32.956 77.107 32.956 30.72 0 56.388-10.803 76.254-32.12 21.18-21.18 31.249-46.267 31.249-77.107 0-28.979-9.626-52.24-31.266-75.383-20.856-20.873-47.378-32.137-76.254-32.137z" p-id="5542" data-spm-anchor-id="a313x.search_index.0.i12.6c573a81wKAg47" class="selected" fill="#ffffff"></path><path d="M462.507 554.667c-18.398 0-34.253-5.769-48.47-17.596-14.284-14.182-21.504-31.812-21.504-50.671 0-19.73 7.834-37.564 21.504-48.947 12.561-12.664 28.792-19.32 48.47-19.32 18.278 0 34.406 6.844 47.906 20.36 12.51 10.343 20.343 28.178 20.343 47.907a69.615 69.615 0 0 1-20.343 49.596c-15.155 12.749-30.89 18.67-47.906 18.67z m0-102.4c-10.599 0-18.21 3.106-25.48 10.36-6.913 5.853-10.36 14.352-10.36 23.773 0 9.745 3.686 18.807 10.36 25.48 6.894 5.667 15.103 8.653 25.48 8.653 8.926 0 17.083-3.174 24.917-9.694 5.53-5.632 9.216-14.677 9.216-24.439 0-9.42-3.447-17.92-9.216-22.733-8.21-8.106-15.77-11.4-24.917-11.4z m332.8 273.066a17.067 17.067 0 0 1-17.067-17.066V187.733a17.067 17.067 0 0 1 25.532-14.814c75.878 43.367 123.306 131.072 144.913 268.152a17.067 17.067 0 1 1-33.707 5.325c-17.22-109.159-50.91-183.57-102.605-226.202v488.073a17.067 17.067 0 0 1-17.066 17.066z" p-id="5543" data-spm-anchor-id="a313x.search_index.0.i8.6c573a81wKAg47" class="selected" fill="#ffffff"></path></svg>