<?xml version="1.0" standalone="no"?><!DOCTYPE svg PUBLIC "-//W3C//DTD SVG 1.1//EN" "http://www.w3.org/Graphics/SVG/1.1/DTD/svg11.dtd"><svg t="1731336077369" class="icon" viewBox="0 0 1922 1024" version="1.1" xmlns="http://www.w3.org/2000/svg" p-id="48572" xmlns:xlink="http://www.w3.org/1999/xlink" width="240.25" height="128"><path d="M243.49398 294.84029c0-74.756924-1.322231-142.394141 0-210.031357 1.118811-44.549024 27.258307-71.19707 70.38339-80.5544a279.295936 279.295936 0 0 1 55.432005-4.170114h1251.034234c105.473374-0.20342 129.476958 24.105294 129.476958 127.646176v169.449028c-32.750652 0-59.398699 1.830782-85.843325 0-64.891044-5.390635-136.901795 46.278096-148.903587 117.576876-8.441938 49.939659-23.596743 98.658797-35.801955 148.598456-77.096256-3.763274-152.565151-10.882981-228.339175-10.17101-170.160998 0.711971-339.610025 21.053991-510.788124 1.830782-96.217755-10.781271-195.385103 3.763274-294.959292 7.017997-45.464415-100.387869-9.560749-265.056522-201.691129-267.192434z" fill="#cc40dd" p-id="48573"></path><path d="M1610.68115 972.636399l-12.001792 49.634529c-68.044057-2.644463-138.020606 18.714658-195.588523-39.666939-10.781271-10.882981-33.869463-13.425733-50.85505-13.425733q-381.209456-1.220521-762.825753 0c-17.900978 0-43.023372 0.711971-52.584122 11.594951-55.635425 63.873943-127.239336 35.496825-195.893653 43.226793l-10.171011-48.108877c-4.068404-2.542753-5.492345-4.068404-7.017996-4.271825-115.034124-13.527443-114.932413-13.527443-142.394141-129.171827-6.306026-26.139496-15.459935-51.668731-20.952281-77.909937-10.17101-50.24479-39.260099-78.011647-90.318569-88.792918-74.146663-15.968486-82.792022-35.089985-56.550816-106.287055 39.260099-106.795605 142.08901-172.907171 255.902613-156.328424 21.359121 3.051303 48.515718 30.51303 56.245685 51.973861a1444.893686 1444.893686 0 0 1 45.667836 176.670445c8.441938 38.649838 32.343812 49.837949 66.823535 43.430213a1364.034156 1364.034156 0 0 1 499.396593-0.915391 199.555217 199.555217 0 0 0 65.501305-3.254724c156.633555-24.918975 312.860269-27.766857 469.188693 2.847883 51.973861 10.17101 69.773129-2.237622 82.690312-55.025164 12.408632-50.85505 24.512134-101.7101 35.700245-153.073701 10.17101-46.481516 35.496825-64.992754 85.538194-66.518406 113.305052-3.458143 211.760429 81.36808 240.747808 181.450819 11.594951 39.870359 3.763274 71.807331-38.446418 77.503097-86.453585 11.696662-118.695687 66.213275-128.663277 143.919792a355.06996 355.06996 0 0 1-12.510342 49.227688c-28.173698 101.50668-8.441938 100.489579-126.629075 111.27085z" fill="#cc40dd" p-id="48574"></path></svg>