<?xml version="1.0" standalone="no"?><!DOCTYPE svg PUBLIC "-//W3C//DTD SVG 1.1//EN" "http://www.w3.org/Graphics/SVG/1.1/DTD/svg11.dtd"><svg class="icon" width="48px" height="48.00px" viewBox="0 0 1024 1024" version="1.1" xmlns="http://www.w3.org/2000/svg"><path d="M681.6 1017.6l64-160 153.6 83.2L752 531.2c-6.4-19.2-32-32-51.2-25.6l-147.2 51.2c-19.2 6.4-32 32-25.6 51.2l153.6 409.6zM291.2 864l64 160 147.2-409.6c12.8-19.2 0-44.8-19.2-51.2L336 505.6c-19.2-6.4-38.4 6.4-44.8 25.6L144 940.8 291.2 864z" fill="#62C2EC" /><path d="M515.2 787.2L329.6 800 227.2 646.4 99.2 512l51.2-172.8L176 153.6l172.8-64L515.2 0l160 89.6 172.8 64 25.6 185.6L924.8 512l-128 134.4L694.4 800l-179.2-12.8z" fill="#D1DFE8" /><path d="M515.2 691.2c147.2 0 268.8-121.6 268.8-268.8S662.4 153.6 515.2 153.6 246.4 275.2 246.4 422.4 368 691.2 515.2 691.2z" fill="#A1B5C1" /><path d="M649.6 576H374.4c0-25.6 12.8-51.2 25.6-76.8 12.8-19.2 44.8-51.2 89.6-83.2 25.6-19.2 38.4-32 51.2-44.8 6.4-12.8 12.8-19.2 12.8-32s-6.4-19.2-12.8-25.6c-12.8-6.4-19.2-12.8-32-12.8s-25.6 6.4-25.6 12.8-12.8 19.2-12.8 38.4l-96-6.4c6.4-25.6 12.8-44.8 19.2-64 6.4-19.2 25.6-25.6 44.8-38.4 19.2-6.4 44.8-12.8 70.4-12.8 25.6 0 57.6 6.4 76.8 12.8 19.2 6.4 32 19.2 44.8 32 12.8 19.2 12.8 38.4 12.8 57.6 0 19.2-6.4 38.4-19.2 57.6-12.8 19.2-32 38.4-64 64-19.2 6.4-32 19.2-38.4 25.6-6.4 0-12.8 6.4-19.2 19.2h140.8V576h6.4z" fill="#DFEBF3" /></svg>