<?xml version="1.0" standalone="no"?><!DOCTYPE svg PUBLIC "-//W3C//DTD SVG 1.1//EN" "http://www.w3.org/Graphics/SVG/1.1/DTD/svg11.dtd"><svg t="1737686298837" class="icon" viewBox="0 0 1024 1024" version="1.1" xmlns="http://www.w3.org/2000/svg" p-id="10733" width="32" height="32" xmlns:xlink="http://www.w3.org/1999/xlink"><path d="M688.896 204.8h-512C107.072 204.8 46.528 265.28 46.528 335.104v512c0 69.824 60.544 130.368 130.368 130.368h512c69.76 0 130.304-60.544 130.304-130.368v-512c0-69.76-60.48-130.304-130.304-130.304z m55.808 642.304c0 32.64-23.232 55.872-55.808 55.872h-512c-32.64 0-55.872-23.296-55.872-55.872v-512c0-32.576 23.296-55.808 55.872-55.808h512c32.576 0 55.808 23.232 55.808 55.808v512z m102.4-800.576H353.728c-18.56 0-37.248 18.624-37.248 37.248s18.624 37.248 37.248 37.248h493.44c32.512 0 55.808 23.296 55.808 55.872v493.376c0 18.56 18.624 37.248 37.248 37.248 18.56 0 37.248-18.624 37.248-37.248v-493.44c0-69.76-60.544-130.304-130.368-130.304z m-228.032 409.6c-13.952-13.952-32.64-13.952-46.592 0L386.304 647.04 302.528 558.528c-13.952-13.952-32.576-13.952-46.528 0l-4.672 4.672c-13.952 13.952-13.952 32.64 0 46.528l111.744 111.744a30.08 30.08 0 0 0 23.232 9.28c9.344 0 18.624 0 23.296-9.28l214.08-214.144a42.24 42.24 0 0 0 0-46.528l-4.608-4.672z" fill="#707070" p-id="10734"></path></svg>