<?xml version="1.0" standalone="no"?><!DOCTYPE svg PUBLIC "-//W3C//DTD SVG 1.1//EN" "http://www.w3.org/Graphics/SVG/1.1/DTD/svg11.dtd"><svg t="1751013247668" class="icon" viewBox="0 0 1024 1024" version="1.1" xmlns="http://www.w3.org/2000/svg" p-id="23853" width="32" height="32" xmlns:xlink="http://www.w3.org/1999/xlink"><path d="M688.872727 204.8h-512c-69.818182 0-130.327273 60.509091-130.327272 130.327273v512c0 69.818182 60.509091 130.327273 130.327272 130.327272h512c69.818182 0 130.327273-60.509091 130.327273-130.327272v-512c0-69.818182-60.509091-130.327273-130.327273-130.327273z m55.854546 642.327273c0 32.581818-23.272727 55.854545-55.854546 55.854545h-512c-32.581818 0-55.854545-23.272727-55.854545-55.854545v-512c0-32.581818 23.272727-55.854545 55.854545-55.854546h512c32.581818 0 55.854545 23.272727 55.854546 55.854546v512z" p-id="23854"></path><path d="M847.127273 46.545455h-493.381818c-18.618182 0-37.236364 18.618182-37.236364 37.236363s18.618182 37.236364 37.236364 37.236364h493.381818c32.581818 0 55.854545 23.272727 55.854545 55.854545v493.381818c0 18.618182 18.618182 37.236364 37.236364 37.236364s37.236364-18.618182 37.236363-37.236364V176.872727c0-69.818182-60.509091-130.327273-130.327272-130.327272zM619.054545 456.145455c-13.963636-13.963636-32.581818-13.963636-46.545454 0l-186.181818 190.836363-83.781818-88.436363c-13.963636-13.963636-32.581818-13.963636-46.545455 0l-4.654545 4.654545c-13.963636 13.963636-13.963636 32.581818 0 46.545455l111.70909 111.70909c9.309091 9.309091 18.618182 9.309091 23.272728 9.309091 9.309091 0 18.618182 0 23.272727-9.309091l214.109091-214.10909c9.309091-13.963636 9.309091-32.581818 0-46.545455l-4.654546-4.654545z" p-id="23855"></path></svg>