<?xml version="1.0" standalone="no"?><!DOCTYPE svg PUBLIC "-//W3C//DTD SVG 1.1//EN" "http://www.w3.org/Graphics/SVG/1.1/DTD/svg11.dtd"><svg t="1732338430031" class="icon" viewBox="0 0 1024 1024" version="1.1" xmlns="http://www.w3.org/2000/svg" p-id="13350" width="32" height="32" xmlns:xlink="http://www.w3.org/1999/xlink"><path d="M965.791183 978.858469c0-2.37587-2.37587-4.75174-2.37587-9.50348 0-4.75174-2.37587-11.87935-4.75174-16.63109-47.517401-128.296984-149.679814-230.459397-280.352668-280.352668 114.041763-59.396752 190.069606-178.190255 190.069606-315.990719 0-197.197216-159.183295-356.38051-356.38051-356.38051C314.802784 2.37587 155.61949 161.559165 155.61949 358.756381c0 137.800464 78.403712 256.593968 190.069606 315.990719-128.296984 47.517401-230.459397 149.679814-280.352668 280.352668-2.37587 4.75174-4.75174 9.50348-4.75174 16.63109 0 2.37587-2.37587 4.75174-2.37587 9.50348L60.584687 981.234339C60.584687 1002.617169 81.967517 1024 108.102088 1024c26.134571 0 47.517401-21.382831 47.517401-45.141531l4.75174 0C215.016241 838.682135 352.816705 738.895592 512 738.895592s296.983759 99.786543 351.62877 239.962877L868.38051 978.858469c0 26.134571 21.382831 45.141531 47.517401 45.141531C942.032483 1024 963.415313 1002.617169 965.791183 978.858469L965.791183 978.858469zM512 620.102088c-144.928074 0-261.345708-116.417633-261.345708-261.345708C250.654292 213.828306 367.071926 97.410673 512 97.410673c144.928074 0 261.345708 116.417633 261.345708 261.345708C773.345708 503.684455 656.928074 620.102088 512 620.102088z" p-id="13351" fill="#e6e6e6"></path></svg>