<?xml version="1.0" standalone="no"?><!DOCTYPE svg PUBLIC "-//W3C//DTD SVG 1.1//EN" "http://www.w3.org/Graphics/SVG/1.1/DTD/svg11.dtd"><svg t="1731328065212" class="icon" viewBox="0 0 1024 1024" version="1.1" xmlns="http://www.w3.org/2000/svg" p-id="32036" xmlns:xlink="http://www.w3.org/1999/xlink" width="128" height="128"><path d="M62.976 905.408V652.16c0-27.84 22.528-50.304 50.304-50.304h116.032a50.304 50.304 0 0 0 50.304-50.304V395.52c0-27.776 22.464-50.304 50.304-50.304h221.952a50.304 50.304 0 0 0 50.304-50.304V112.832c0-27.84 22.528-50.304 50.304-50.304h260.032c27.776 0 50.304 22.464 50.304 50.24v796.352a50.304 50.304 0 0 1-50.56 50.304L113.28 955.776a50.432 50.432 0 0 1-50.304-50.368z" p-id="32037" fill="#fd6cbc"></path></svg>