<svg width="32" height="32" viewBox="0 0 32 32" shape-rendering="geometricPrecision" xmlns="http://www.w3.org/2000/svg" xmlns:xlink="http://www.w3.org/1999/xlink"><g id="frame-vO7w-g"><path d="M1.40047 14.723C1.29422 14.723 1.18484 14.7105 1.07859 14.6855C0.325467 14.5074 -0.140158 13.7543 0.0379673 13.0012C0.156717 12.5012 0.156717 12.5012 13.0661 0.379298C13.6067 -0.126952 14.4473 -0.126952 14.9848 0.382423L27.563 12.2574C28.1255 12.7887 28.1505 13.673 27.6192 14.2355C27.088 14.798 26.2005 14.823 25.6411 14.2918L14.0223 3.32305C9.33484 7.72617 3.03484 13.6574 2.45984 14.2418C2.19734 14.5418 1.80984 14.723 1.40047 14.723Z" shape-rendering="geometricPrecision" fill="#171717" style="fill-rule:evenodd" transform="matrix(1 0 0 1 2 9)"></path></g></svg>