<?xml version="1.0" standalone="no"?><!DOCTYPE svg PUBLIC "-//W3C//DTD SVG 1.1//EN" "http://www.w3.org/Graphics/SVG/1.1/DTD/svg11.dtd"><svg t="1731977731134" class="icon" viewBox="0 0 1024 1024" version="1.1" xmlns="http://www.w3.org/2000/svg" p-id="1560" xmlns:xlink="http://www.w3.org/1999/xlink" width="32" height="32"><path d="M972.8 0H51.2C23.04 0 0 23.04 0 51.2v143.36c0 28.16 23.04 51.2 51.2 51.2h71.68v494.592c0 38.4 19.456 73.728 51.712 93.696L457.216 1008.64c16.896 10.24 35.84 15.36 54.784 15.36s37.888-5.12 54.784-15.36l283.136-174.592c31.744-19.968 51.712-55.296 51.712-93.696V245.76h71.68c28.16 0 51.2-23.04 51.2-51.2V51.2C1024 23.04 1000.96 0 972.8 0z m-303.616 512.512l-64 63.488 15.872 91.136c1.024 5.12 0 10.24-2.048 14.848-5.632 10.752-18.432 14.848-29.184 9.216l-77.824-44.032-77.824 44.032c-4.096 2.56-9.216 3.072-14.336 2.56-11.776-2.048-19.456-13.824-16.896-26.112l16.384-91.136-64-63.488c-3.584-3.584-5.632-8.192-6.656-13.312-1.536-12.288 6.656-23.552 18.432-25.088l87.552-12.288L492.544 378.88c2.048-4.608 5.632-8.192 10.24-10.752 10.752-5.12 23.552-0.512 28.672 10.752l38.4 83.456 87.552 12.288c4.608 0.512 9.216 3.072 12.8 6.656 7.68 8.704 7.68 23.04-1.024 31.232z" p-id="1561" fill="#515151"></path></svg>